<?xml version="1.0" encoding="UTF-8"?>
<svg id="_Слой_1" data-name="Слой 1" xmlns="http://www.w3.org/2000/svg" viewBox="0 0 1300 900">
  <defs>
    <style>
      .cls-1 {
        fill: #3061d8;
        stroke-width: 0px;
      }
    </style>
  </defs>
  <path class="cls-1" d="m684.73,459.84h-.09l.07,2.01c.01.23.02.46.02.69,0,6.66-1.86,12.23-5.53,16.55-3.83,4.57-8.93,6.78-15.58,6.78s-11.78-2.23-15.87-6.82c-3.83-4.31-5.76-9.87-5.76-16.52s1.94-12.2,5.76-16.52c4.1-4.59,9.29-6.82,15.87-6.82,4.71,0,8.76,1.19,12.05,3.53l3.07,2.19-2.95-14.94-.66-.33c-.19-.1-4.81-2.34-12.17-2.34-10.24,0-18.58,3.46-24.78,10.3-5.98,6.7-9.01,15.09-9.01,24.92s3.03,18.22,9.01,24.93c6.19,6.83,14.31,10.29,24.12,10.29,9.18,0,16.52-2.93,21.9-8.71v7.67h12.8v-68.35h-12.28v31.47Z"/>
  <path class="cls-1" d="m562.4,467.52c0,5.47-1.73,9.82-5.29,13.29-3.58,3.42-7.82,5.08-12.95,5.08s-8.98-1.6-12.11-4.89c-3.11-3.27-4.68-7.76-4.68-13.34v-39.27h-12.8v39.54c0,9.09,2.88,16.53,8.52,22.08,2.5,2.59,5.45,4.55,8.77,5.85,3.3,1.28,7.26,1.93,11.78,1.93s8.82-1.18,12.44-3.5c2.33-1.49,4.44-3.22,6.32-5.17v7.62h12.8v-68.35h-12.8v39.14Z"/>
  <path class="cls-1" d="m614.19,429.56c-4.99,2.31-8.82,5.52-11.46,9.6v-10.79h-12.8v68.35h12.8v-30.26c0-7.12,2.01-13.32,5.95-18.42,4.18-5.33,9.44-7.92,16.07-7.92h2.68v-12.8h-2.15c-4.3,0-8.04.75-11.09,2.23Z"/>
  <rect class="cls-1" x="776.85" y="402.23" width="12.8" height="94.49"/>
  <path class="cls-1" d="m488.94,459.84h-.09l.07,2.01c.01.23.02.46.02.69,0,6.66-1.86,12.23-5.53,16.55-3.83,4.57-8.93,6.78-15.58,6.78s-11.78-2.23-15.87-6.82c-3.83-4.31-5.76-9.87-5.76-16.52s1.94-12.2,5.76-16.52c4.1-4.59,9.29-6.82,15.87-6.82,4.71,0,8.76,1.19,12.05,3.53l3.07,2.19-2.95-14.94-.66-.33c-.19-.1-4.81-2.34-12.17-2.34-10.24,0-18.58,3.46-24.78,10.3-5.98,6.7-9.01,15.09-9.01,24.92s3.03,18.22,9.01,24.93c6.19,6.83,14.31,10.29,24.12,10.29,9.18,0,16.52-2.93,21.9-8.71v7.67h12.8v-68.35h-12.28v31.47Z"/>
  <path class="cls-1" d="m866.61,462.55c0-10.01-3.04-18.4-9.03-24.94-6.37-6.82-14.74-10.28-24.89-10.28s-18.52,3.46-24.89,10.29c-5.99,6.53-9.02,14.92-9.02,24.93s3.17,18.33,9.43,24.95c6.45,6.82,14.91,10.27,25.14,10.27,7.35,0,11.23-1.5,11.39-1.57l.79-.31,2.61-15.32-2.93,2.04c-3.12,2.17-7.07,3.27-11.72,3.27-6.1,0-10.98-1.83-14.91-5.6-3.23-3.09-5.43-7.44-6.4-12.32h54.44v-5.42Zm-48.06-18.11c3.79-3.47,8.55-5.23,14.15-5.23s10.3,1.71,14.14,5.22c3.17,2.96,5.28,6.79,6.28,11.39h-40.84c1-4.6,3.1-8.43,6.27-11.38Z"/>
  <path class="cls-1" d="m757.35,473.63c-1.37,3.46-3.57,6.32-6.55,8.49-2.95,2.15-6.39,3.24-10.23,3.24-7.29,0-12.82-2.23-16.93-6.83-3.99-4.4-6.01-9.95-6.01-16.51s2.02-12.11,6.03-16.52c1.85-2.1,4.17-3.77,6.88-4.98,2.71-1.21,6.09-1.83,10.04-1.83s7.28,1.09,10.23,3.24c2.97,2.17,5.18,5.03,6.55,8.49l.86,2.17,9.01-9.37-.11-.73c-.09-.62-.9-3.97-7.89-9.39-5.81-4.18-12.79-6.29-20.74-6.29-9.98,0-18.22,3.46-24.5,10.29-6.07,6.62-9.15,15-9.15,24.93s3.08,18.32,9.15,24.93c6.28,6.83,14.52,10.29,24.5,10.29,7.95,0,14.93-2.12,20.76-6.31,5.55-4.1,9.43-9.59,11.52-16.32l.6-1.95h-13.64l-.38.95Z"/>
</svg>