<?xml version="1.0" encoding="UTF-8"?>
<svg id="Layer_2" data-name="Layer 2" xmlns="http://www.w3.org/2000/svg" viewBox="0 0 662.9 146.19">
  <defs>
    <style>
      .cls-1 {
        fill: #3061d8;
        stroke-width: 0px;
      }
    </style>
  </defs>
  <g id="_Слой_1" data-name="Слой 1">
    <g>
      <path class="cls-1" d="m384.59,88.15h-.14l.1,3.08c.02.35.03.7.03,1.06,0,10.19-2.85,18.71-8.47,25.33-5.86,6.99-13.66,10.38-23.84,10.38s-18.02-3.41-24.28-10.43c-5.85-6.6-8.82-15.1-8.82-25.28s2.97-18.67,8.82-25.27c6.27-7.02,14.21-10.43,24.29-10.43,7.2,0,13.41,1.82,18.44,5.4l4.7,3.35-4.51-22.86-1.01-.5c-.3-.15-7.35-3.58-18.62-3.58-15.67,0-28.43,5.3-37.91,15.77-9.15,10.26-13.78,23.08-13.78,38.13s4.64,27.88,13.79,38.14c9.48,10.45,21.89,15.75,36.9,15.75,14.04,0,25.28-4.48,33.5-13.33v11.73h19.59V40h-18.79v48.15Z"/>
      <path class="cls-1" d="m197.4,99.9c0,8.37-2.65,15.03-8.09,20.34-5.48,5.23-11.96,7.77-19.82,7.77s-13.75-2.45-18.54-7.49c-4.76-5-7.17-11.87-7.17-20.42v-60.1h-19.59v60.5c0,13.91,4.4,25.3,13.04,33.79,3.82,3.96,8.34,6.97,13.42,8.95,5.04,1.96,11.11,2.95,18.03,2.95s13.49-1.81,19.04-5.36c3.57-2.28,6.8-4.93,9.67-7.9v11.67h19.59V40h-19.59v59.9Z"/>
      <path class="cls-1" d="m276.65,41.81c-7.63,3.53-13.5,8.45-17.54,14.7v-16.51h-19.59v104.59h19.59v-46.3c0-10.89,3.07-20.38,9.11-28.18,6.4-8.16,14.44-12.12,24.59-12.12h4.1v-19.59h-3.3c-6.58,0-12.3,1.15-16.97,3.41Z"/>
      <rect class="cls-1" x="525.56" width="19.59" height="144.59"/>
      <path class="cls-1" d="m85,88.15h-.14l.1,3.08c.02.35.03.7.03,1.06,0,10.19-2.85,18.71-8.47,25.33-5.86,6.99-13.66,10.38-23.84,10.38s-18.02-3.41-24.28-10.43c-5.85-6.6-8.82-15.1-8.82-25.28s2.97-18.67,8.82-25.27c6.27-7.02,14.21-10.43,24.29-10.43,7.2,0,13.41,1.82,18.44,5.4l4.7,3.35-4.51-22.86-1.01-.5c-.3-.15-7.35-3.58-18.62-3.58-15.67,0-28.43,5.3-37.91,15.77C4.64,64.42,0,77.25,0,92.3s4.64,27.88,13.79,38.14c9.48,10.45,21.89,15.75,36.9,15.75,14.04,0,25.28-4.48,33.5-13.33v11.73h19.59V40h-18.79v48.15Z"/>
      <path class="cls-1" d="m662.9,92.3c0-15.32-4.64-28.16-13.82-38.17-9.74-10.44-22.56-15.73-38.08-15.73s-28.34,5.29-38.09,15.74c-9.16,9.99-13.8,22.83-13.8,38.15s4.85,28.05,14.43,38.18c9.87,10.43,22.81,15.72,38.47,15.72,11.24,0,17.18-2.3,17.43-2.4l1.2-.48,3.99-23.44-4.49,3.12c-4.78,3.32-10.82,5-17.94,5-9.34,0-16.8-2.8-22.81-8.56-4.94-4.73-8.31-11.38-9.8-18.85h83.3v-8.3Zm-73.55-27.71c5.8-5.31,13.09-8,21.65-8s15.77,2.62,21.64,7.98c4.86,4.53,8.08,10.38,9.61,17.43h-62.49c1.53-7.04,4.75-12.9,9.6-17.41Z"/>
      <path class="cls-1" d="m495.72,109.25c-2.1,5.3-5.47,9.67-10.02,12.99-4.51,3.29-9.77,4.96-15.65,4.96-11.16,0-19.62-3.41-25.9-10.45-6.11-6.73-9.2-15.23-9.2-25.26s3.1-18.53,9.22-25.28c2.84-3.21,6.38-5.77,10.52-7.63,4.15-1.86,9.31-2.8,15.36-2.8s11.14,1.67,15.65,4.96c4.55,3.32,7.92,7.7,10.02,12.99l1.31,3.32,13.79-14.34-.16-1.11c-.14-.95-1.37-6.08-12.07-14.38-8.89-6.39-19.57-9.63-31.74-9.63-15.27,0-27.88,5.3-37.49,15.74-9.29,10.12-14,22.96-14,38.15s4.71,28.03,14.01,38.15c9.61,10.45,22.22,15.74,37.49,15.74,12.17,0,22.85-3.24,31.76-9.65,8.5-6.27,14.43-14.67,17.63-24.97l.92-2.98h-20.88l-.57,1.45Z"/>
    </g>
  </g>
</svg>