<svg width="117" height="106" viewBox="0 0 117 106" fill="none" xmlns="http://www.w3.org/2000/svg">
<path opacity="0.2" d="M74.4545 100.7V90.1C74.4545 85.8831 72.7724 81.84 69.7804 78.8582C67.1628 76.2496 63.7305 74.6394 60.0788 74.2776L58.5 74.2H26.5909C22.3595 74.2 18.3026 75.8764 15.3105 78.8582C12.3185 81.84 10.6364 85.8831 10.6364 90.1V100.7C10.6364 103.627 8.25533 106 5.31818 106C2.38103 106 0 103.627 0 100.7V90.1C0 83.0718 2.80354 76.3334 7.79031 71.3637C12.7771 66.394 19.5386 63.6 26.5909 63.6H58.5C65.5524 63.6 72.3138 66.394 77.3006 71.3637C82.2874 76.3334 85.0909 83.0718 85.0909 90.1V100.7C85.0909 103.627 82.7099 106 79.7727 106C76.8356 106 74.4545 103.627 74.4545 100.7ZM106.364 100.7V90.1052L106.307 88.7905C106.05 85.7368 104.914 82.8114 103.019 80.3747C100.853 77.5905 97.8203 75.6036 94.3977 74.7228C91.5538 73.991 89.8462 71.0975 90.5805 68.2634C91.3153 65.4299 94.2133 63.7275 97.0568 64.4592C102.761 65.9271 107.818 69.2387 111.427 73.8791C115.036 78.5192 116.995 84.2239 117 90.0948V100.7C117 103.627 114.619 106 111.682 106C108.745 106 106.364 103.627 106.364 100.7ZM58.5 26.5C58.5 17.7187 51.3569 10.6 42.5455 10.6C33.734 10.6 26.5909 17.7187 26.5909 26.5C26.5909 35.2813 33.734 42.4 42.5455 42.4C51.3569 42.4 58.5 35.2813 58.5 26.5ZM90.3883 26.5C90.3883 22.9781 89.2166 19.555 87.0541 16.7695C84.8911 13.9839 81.8593 11.9911 78.438 11.1072C75.5951 10.3725 73.8889 7.48112 74.6259 4.64785C75.3633 1.81487 78.2646 0.114336 81.1075 0.848828C86.8095 2.32207 91.8575 5.64158 95.4624 10.2843C99.0673 14.927 101.025 20.6296 101.025 26.5C101.025 32.3704 99.0673 38.073 95.4624 42.7157C91.8575 47.3584 86.8094 50.6779 81.1075 52.1512C78.2646 52.8857 75.3633 51.1851 74.6259 48.3521C73.8889 45.5189 75.5951 42.6275 78.438 41.8928C81.8593 41.0089 84.8911 39.0161 87.0541 36.2305C89.2166 33.445 90.3883 30.0219 90.3883 26.5ZM69.1364 26.5C69.1364 41.1355 57.2312 53 42.5455 53C27.8597 53 15.9545 41.1355 15.9545 26.5C15.9545 11.8645 27.8597 0 42.5455 0C57.2312 0 69.1364 11.8645 69.1364 26.5Z" fill="white"/>
</svg>
