<svg width="148" height="148" viewBox="0 0 148 148" fill="none" xmlns="http://www.w3.org/2000/svg">
<path opacity="0.2" d="M121.091 33.6364C121.091 29.921 118.079 26.9091 114.364 26.9091H33.6364C29.921 26.9091 26.9091 29.921 26.9091 33.6364V114.364C26.9091 118.079 29.921 121.091 33.6364 121.091H114.364C118.079 121.091 121.091 118.079 121.091 114.364V33.6364ZM53.8182 53.8182V94.1818H94.1818V53.8182H53.8182ZM107.636 94.1818C107.636 101.613 101.613 107.636 94.1818 107.636H53.8182C46.3874 107.636 40.3636 101.613 40.3636 94.1818V53.8182C40.3636 46.3874 46.3874 40.3636 53.8182 40.3636H94.1818C101.613 40.3636 107.636 46.3874 107.636 53.8182V94.1818ZM141.273 33.6364C144.988 33.6364 148 36.6483 148 40.3636C148 44.079 144.988 47.0909 141.273 47.0909H134.545V67.2727H141.273C144.988 67.2727 148 70.2846 148 74C148 77.7154 144.988 80.7273 141.273 80.7273H134.545V100.909H141.273C144.988 100.909 148 103.921 148 107.636C148 111.352 144.988 114.364 141.273 114.364H134.545C134.545 125.51 125.51 134.545 114.364 134.545V141.273C114.364 144.988 111.352 148 107.636 148C103.921 148 100.909 144.988 100.909 141.273V134.545H80.7273V141.273C80.7273 144.988 77.7154 148 74 148C70.2846 148 67.2727 144.988 67.2727 141.273V134.545H47.0909V141.273C47.0909 144.988 44.079 148 40.3636 148C36.6483 148 33.6364 144.988 33.6364 141.273V134.545C22.4903 134.545 13.4545 125.51 13.4545 114.364H6.72727C3.0119 114.364 0 111.352 0 107.636C0 103.921 3.0119 100.909 6.72727 100.909H13.4545V80.7273H6.72727C3.0119 80.7273 0 77.7154 0 74C0 70.2846 3.0119 67.2727 6.72727 67.2727H13.4545V47.0909H6.72727C3.0119 47.0909 0 44.079 0 40.3636C0 36.6483 3.0119 33.6364 6.72727 33.6364H13.4545C13.4545 22.4903 22.4903 13.4545 33.6364 13.4545V6.72727C33.6364 3.0119 36.6483 0 40.3636 0C44.079 0 47.0909 3.0119 47.0909 6.72727V13.4545H67.2727V6.72727C67.2727 3.0119 70.2846 0 74 0C77.7154 0 80.7273 3.0119 80.7273 6.72727V13.4545H100.909V6.72727C100.909 3.0119 103.921 0 107.636 0C111.352 0 114.364 3.0119 114.364 6.72727V13.4545C125.51 13.4545 134.545 22.4903 134.545 33.6364H141.273Z" fill="white"/>
</svg>
