<svg width="124" height="113" viewBox="0 0 124 113" fill="none" xmlns="http://www.w3.org/2000/svg">
<path opacity="0.2" d="M67.6364 90.4C67.6364 88.9015 67.0421 87.4649 65.9851 86.4053C65.0599 85.4779 63.8466 84.9058 62.5559 84.7776L62 84.75C60.5051 84.75 59.0719 85.3457 58.0149 86.4053C56.9579 87.4649 56.3636 88.9015 56.3636 90.4V101.7H67.6364V90.4ZM73.2727 50.85C76.3856 50.85 78.9091 53.3796 78.9091 56.5C78.9091 59.6204 76.3856 62.15 73.2727 62.15H50.7273C47.6144 62.15 45.0909 59.6204 45.0909 56.5C45.0909 53.3796 47.6144 50.85 50.7273 50.85H73.2727ZM73.2727 28.25C76.3856 28.25 78.9091 30.7796 78.9091 33.9C78.9091 37.0204 76.3856 39.55 73.2727 39.55H50.7273C47.6144 39.55 45.0909 37.0204 45.0909 33.9C45.0909 30.7796 47.6144 28.25 50.7273 28.25H73.2727ZM112.727 39.55C112.727 38.0515 112.133 36.6149 111.076 35.5553C110.151 34.6279 108.938 34.0558 107.647 33.9276L107.091 33.9H101.455V101.7H107.091C108.586 101.7 110.019 101.104 111.076 100.045C112.133 98.9851 112.727 97.5485 112.727 96.05V39.55ZM11.2727 96.05C11.2727 97.5485 11.867 98.9851 12.924 100.045C13.981 101.104 15.4142 101.7 16.9091 101.7H22.5455V50.85H16.9091C15.4142 50.85 13.981 51.4457 12.924 52.5053C11.867 53.5649 11.2727 55.0015 11.2727 56.5V96.05ZM90.1818 16.95C90.1818 15.4515 89.5876 14.0149 88.5305 12.9553C87.4735 11.8957 86.0403 11.3 84.5455 11.3H39.4545C37.9597 11.3 36.5265 11.8957 35.4695 12.9553C34.4124 14.0149 33.8182 15.4515 33.8182 16.95V101.7H45.0909V90.4C45.0909 85.9046 46.8737 81.5946 50.0447 78.4158C53.2158 75.2371 57.5154 73.45 62 73.45L63.6733 73.5328C67.5434 73.9184 71.181 75.6349 73.9553 78.4158C77.1263 81.5946 78.9091 85.9046 78.9091 90.4V101.7H90.1818V16.95ZM101.455 22.6H107.091C111.575 22.6 115.875 24.3871 119.046 27.5658C122.217 30.7446 124 35.0546 124 39.55V96.05C124 100.545 122.217 104.855 119.046 108.034C115.875 111.213 111.575 113 107.091 113H16.9091C12.4245 113 8.1249 111.213 4.95384 108.034C1.78277 104.855 0 100.545 0 96.05V56.5C0 52.0046 1.78277 47.6946 4.95384 44.5158C8.1249 41.3371 12.4245 39.55 16.9091 39.55H22.5455V16.95C22.5455 12.4546 24.3282 8.14456 27.4993 4.96582C30.6704 1.78708 34.97 0 39.4545 0H84.5455C89.03 0 93.3296 1.78708 96.5007 4.96582C99.6718 8.14456 101.455 12.4546 101.455 16.95V22.6Z" fill="white"/>
</svg>
