<svg width="190" height="104" viewBox="0 0 190 104" fill="none" xmlns="http://www.w3.org/2000/svg">
<path opacity="0.2" d="M190 60.6671C190 65.4536 186.133 69.3338 181.364 69.3338C176.594 69.3338 172.727 65.4536 172.727 60.6671V29.5887L114.06 88.4615C110.688 91.8461 105.221 91.8461 101.848 88.4615L64.7723 51.2555L14.7419 101.462C11.3692 104.846 5.90226 104.846 2.52954 101.462C-0.84318 98.077 -0.84318 92.5909 2.52954 89.2063L58.6661 32.8726L59.324 32.2802C62.7161 29.5038 67.7166 29.6996 70.8785 32.8726L107.954 70.0786L160.515 17.3334H129.545C124.776 17.3334 120.909 13.4532 120.909 8.66672C120.909 3.88022 124.776 0 129.545 0H181.364C186.133 0 190 3.88022 190 8.66672V60.6671Z" fill="white"/>
</svg>
