<?xml version="1.0" encoding="UTF-8"?>
<svg id="Layer_2" data-name="Layer 2" xmlns="http://www.w3.org/2000/svg" viewBox="0 0 391.03 406.09">
  <defs>
    <style>
      .cls-1 {
        stroke-width: 0px;
      }
    </style>
  </defs>
  <g id="_Слой_1" data-name="Слой 1">
    <path class="cls-1" d="m320.24,187.44h-.52l.39,11.61c.06,1.32.13,2.64.13,4,0,38.39-10.72,70.48-31.89,95.41-22.08,26.32-51.46,39.11-89.82,39.11s-67.89-12.86-91.49-39.29c-22.05-24.86-33.23-56.89-33.23-95.23s11.18-70.35,33.22-95.21c23.62-26.45,53.55-39.3,91.51-39.3,27.13,0,50.5,6.85,69.47,20.36l17.71,12.61-17-86.11-3.81-1.89c-1.11-.55-27.7-13.5-70.14-13.5-59.04,0-107.09,19.97-142.84,59.4C17.47,98.04,0,146.37,0,203.05s17.47,105.02,51.97,143.7c35.7,39.38,82.48,59.35,139.03,59.35,52.9,0,95.24-16.87,126.22-50.22v44.19h73.81V6.03h-70.79v181.41Z"/>
  </g>
</svg>